<svg width="524" height="428" viewBox="0 0 524 428" fill="none" xmlns="http://www.w3.org/2000/svg">
<rect width="523.028" height="428" fill="#D9D9D9"/>
<path d="M153.063 230.361C150.741 230.361 148.69 229.969 146.91 229.185C145.131 228.371 143.729 227.224 142.703 225.747C141.678 224.239 141.15 222.414 141.12 220.273H147.227C147.287 221.751 147.815 223.002 148.81 224.028C149.836 225.023 151.238 225.521 153.018 225.521C154.556 225.521 155.777 225.159 156.682 224.435C157.587 223.681 158.039 222.686 158.039 221.449C158.039 220.152 157.632 219.142 156.818 218.418C156.033 217.694 154.978 217.106 153.651 216.654C152.324 216.202 150.906 215.719 149.399 215.206C146.956 214.362 145.086 213.276 143.789 211.949C142.522 210.622 141.889 208.858 141.889 206.656C141.859 204.787 142.296 203.188 143.201 201.861C144.136 200.504 145.403 199.464 147.001 198.74C148.599 197.986 150.439 197.609 152.52 197.609C154.631 197.609 156.486 197.986 158.084 198.74C159.713 199.494 160.979 200.549 161.884 201.906C162.819 203.264 163.317 204.877 163.377 206.747H157.179C157.149 205.631 156.712 204.651 155.868 203.806C155.053 202.932 153.907 202.494 152.429 202.494C151.163 202.464 150.092 202.781 149.218 203.444C148.373 204.078 147.951 205.013 147.951 206.249C147.951 207.305 148.283 208.149 148.946 208.783C149.61 209.386 150.514 209.898 151.66 210.321C152.806 210.743 154.118 211.195 155.596 211.678C157.164 212.221 158.597 212.854 159.894 213.578C161.191 214.302 162.231 215.267 163.015 216.473C163.799 217.649 164.191 219.172 164.191 221.042C164.191 222.701 163.769 224.239 162.925 225.656C162.08 227.074 160.829 228.22 159.17 229.094C157.511 229.939 155.475 230.361 153.063 230.361ZM177.543 229.818L165.962 198.152H172.16L181.117 223.892L190.119 198.152H196.226L184.646 229.818H177.543ZM212.774 230.361C209.788 230.361 207.179 229.682 204.947 228.325C202.716 226.968 200.982 225.083 199.745 222.671C198.509 220.228 197.89 217.393 197.89 214.166C197.89 210.909 198.524 208.044 199.79 205.571C201.087 203.067 202.912 201.122 205.264 199.735C207.647 198.318 210.466 197.609 213.724 197.609C217.433 197.609 220.509 198.498 222.952 200.278C225.395 202.057 226.978 204.515 227.702 207.652H221.233C220.75 206.174 219.876 205.028 218.609 204.214C217.343 203.369 215.714 202.947 213.724 202.947C210.557 202.947 208.114 203.957 206.395 205.978C204.676 207.968 203.816 210.713 203.816 214.211C203.816 217.709 204.661 220.424 206.35 222.354C208.069 224.254 210.391 225.204 213.316 225.204C216.181 225.204 218.338 224.435 219.785 222.897C221.263 221.328 222.153 219.278 222.454 216.744H214.447V212.402H228.29V229.818H222.952L222.5 225.656C221.474 227.164 220.193 228.325 218.654 229.14C217.116 229.954 215.156 230.361 212.774 230.361ZM244.699 229.818V198.152H250.489V229.818H244.699ZM256.627 229.818V198.152H263.503L273.591 218.237L283.543 198.152H290.419V229.818H284.629V207.968L275.807 225.294H271.238L262.417 207.968V229.818H256.627ZM294.527 229.818L306.108 198.152H312.623L324.203 229.818H318.051L315.518 222.49H303.168L300.589 229.818H294.527ZM304.751 217.966H313.934L309.32 204.802L304.751 217.966ZM340.314 230.361C337.328 230.361 334.72 229.682 332.488 228.325C330.256 226.968 328.522 225.083 327.286 222.671C326.049 220.228 325.431 217.393 325.431 214.166C325.431 210.909 326.064 208.044 327.331 205.571C328.628 203.067 330.452 201.122 332.805 199.735C335.187 198.318 338.007 197.609 341.264 197.609C344.974 197.609 348.05 198.498 350.493 200.278C352.935 202.057 354.519 204.515 355.243 207.652H348.774C348.291 206.174 347.416 205.028 346.15 204.214C344.883 203.369 343.255 202.947 341.264 202.947C338.097 202.947 335.655 203.957 333.936 205.978C332.217 207.968 331.357 210.713 331.357 214.211C331.357 217.709 332.201 220.424 333.89 222.354C335.609 224.254 337.932 225.204 340.857 225.204C343.722 225.204 345.878 224.435 347.326 222.897C348.804 221.328 349.693 219.278 349.995 216.744H341.988V212.402H355.831V229.818H350.493L350.04 225.656C349.015 227.164 347.733 228.325 346.195 229.14C344.657 229.954 342.697 230.361 340.314 230.361ZM361.46 229.818V198.152H382.134V202.811H367.25V211.497H380.777V216.021H367.25V225.159H382.134V229.818H361.46Z" fill="black"/>
</svg>
